<svg aria-hidden="true" style="position: absolute; width: 0; height: 0; overflow: hidden;" version="1.1" xmlns="http://www.w3.org/2000/svg" xmlns:xlink="http://www.w3.org/1999/xlink">
<defs>
<symbol id="icon-number" viewBox="0 0 32 32">
<title>number</title>
<path d="M16 3c-7.18 0-13 5.82-13 13s5.82 13 13 13 13-5.82 13-13-5.82-13-13-13zM16 27c-6.075 0-11-4.925-11-11s4.925-11 11-11 11 4.925 11 11-4.925 11-11 11zM16.259 13.889c-0.447 0-0.886 0.107-1.313 0.321l0.305-1.704h3.622v-1.797h-5.078l-0.985 5.219 1.557 0.227c0.438-0.49 0.932-0.734 1.484-0.734 0.442 0 0.801 0.154 1.077 0.462s0.414 0.77 0.414 1.386c0 0.657-0.14 1.148-0.417 1.475s-0.618 0.489-1.020 0.489c-0.351 0-0.661-0.126-0.93-0.379-0.27-0.252-0.431-0.595-0.486-1.027l-1.913 0.198c0.114 0.839 0.462 1.506 1.046 2.003 0.584 0.496 1.338 0.744 2.264 0.744 1.158 0 2.062-0.441 2.715-1.327 0.479-0.647 0.717-1.384 0.717-2.21 0-0.989-0.296-1.794-0.889-2.415-0.595-0.621-1.318-0.931-2.17-0.931z"></path>
</symbol>
<symbol id="icon-number4" viewBox="0 0 32 32">
<title>number4</title>
<path d="M16 3c-7.18 0-13 5.82-13 13s5.82 13 13 13 13-5.82 13-13-5.82-13-13-13zM16 27c-6.075 0-11-4.925-11-11s4.925-11 11-11 11 4.925 11 11-4.925 11-11 11zM18.176 11.337h-1.613l-4.354 6.374v1.674h4.109v2.015h1.858v-2.016h1.243v-1.68h-1.243v-6.367zM16.317 17.705h-2.309l2.309-3.434v3.434z"></path>
</symbol>
<symbol id="icon-number2" viewBox="0 0 32 32">
<title>number2</title>
<path d="M16 3c-7.18 0-13 5.82-13 13s5.82 13 13 13 13-5.82 13-13-5.82-13-13-13zM16 27c-6.075 0-11-4.925-11-11s4.925-11 11-11 11 4.925 11 11-4.925 11-11 11zM17.248 15.219c0.963-0.525 1.443-1.228 1.443-2.108 0-0.621-0.234-1.177-0.705-1.67-0.571-0.602-1.33-0.903-2.275-0.903-0.553 0-1.052 0.104-1.497 0.311s-0.792 0.493-1.042 0.855c-0.248 0.362-0.435 0.847-0.559 1.454l1.773 0.302c0.051-0.439 0.193-0.772 0.426-1.001s0.516-0.343 0.845-0.343c0.334 0 0.603 0.101 0.804 0.301 0.201 0.201 0.302 0.471 0.302 0.809 0 0.398-0.138 0.716-0.413 0.957-0.273 0.24-0.673 0.353-1.195 0.339l-0.213 1.565c0.344-0.096 0.638-0.144 0.885-0.144 0.374 0 0.691 0.141 0.952 0.423s0.391 0.665 0.391 1.147c0 0.509-0.136 0.914-0.407 1.214s-0.607 0.45-1.004 0.45c-0.37 0-0.686-0.125-0.945-0.375-0.261-0.25-0.42-0.612-0.479-1.086l-1.859 0.226c0.096 0.843 0.442 1.525 1.040 2.047s1.35 0.782 2.258 0.782c0.957 0 1.758-0.309 2.401-0.929s0.965-1.368 0.965-2.247c0-0.605-0.172-1.122-0.515-1.55-0.346-0.427-0.804-0.703-1.377-0.826z"></path>
</symbol>
<symbol id="icon-number3" viewBox="0 0 32 32">
<title>number3</title>
<path d="M16 3c-7.18 0-13 5.82-13 13s5.82 13 13 13 13-5.82 13-13-5.82-13-13-13zM16 27c-6.075 0-11-4.925-11-11s4.925-11 11-11 11 4.925 11 11-4.925 11-11 11zM17.564 17.777c0.607-0.556 1.027-0.982 1.26-1.278 0.351-0.447 0.607-0.875 0.77-1.282 0.161-0.408 0.242-0.838 0.242-1.289 0-0.793-0.283-1.457-0.848-1.99s-1.342-0.8-2.331-0.8c-0.902 0-1.654 0.23-2.256 0.69s-0.96 1.218-1.073 2.275l1.914 0.191c0.036-0.56 0.173-0.96 0.41-1.201s0.555-0.361 0.956-0.361c0.405 0 0.723 0.115 0.952 0.345 0.23 0.23 0.346 0.56 0.346 0.988 0 0.387-0.133 0.779-0.396 1.176-0.195 0.287-0.727 0.834-1.592 1.64-1.076 0.998-1.796 1.799-2.16 2.403s-0.584 1.242-0.656 1.917h6.734v-1.781h-3.819c0.101-0.173 0.231-0.351 0.394-0.534 0.16-0.183 0.545-0.552 1.153-1.109z"></path>
</symbol>
<symbol id="icon-number5" viewBox="0 0 32 32">
<title>number5</title>
<path d="M16 3c-7.18 0-13 5.82-13 13s5.82 13 13 13 13-5.82 13-13-5.82-13-13-13zM16 27c-6.075 0-11-4.925-11-11s4.925-11 11-11 11 4.925 11 11-4.925 11-11 11zM14.828 12.709c-0.589 0.458-1.134 0.77-1.635 0.934v1.742c0.953-0.314 1.781-0.799 2.484-1.455v7.111h2.047v-10h-1.686c-0.218 0.612-0.622 1.209-1.21 1.668z"></path>
</symbol>
</defs>
</svg>
